<?xml version="1.0" standalone="no"?>
<!DOCTYPE svg PUBLIC "-//W3C//DTD SVG 20010904//EN"
 "http://www.w3.org/TR/2001/REC-SVG-20010904/DTD/svg10.dtd">
<svg version="1.0" xmlns="http://www.w3.org/2000/svg"
 width="250.000000pt" height="250.000000pt" viewBox="0 0 250.000000 250.000000"
 preserveAspectRatio="xMidYMid meet">
<g transform="translate(0.000000,250.000000) scale(0.100000,-0.100000)"
fill="#BF4633" stroke="none">
<path d="M0 1250 l0 -1250 1250 0 1250 0 0 1250 0 1250 -1250 0 -1250 0 0
-1250z m1710 745 l0 -65 -89 0 -89 0 -4 -317 c-3 -304 -4 -320 -25 -359 -45
-84 -131 -123 -230 -105 -85 17 -83 15 -83 96 l0 73 49 -15 c46 -15 80 -13
110 6 24 15 30 90 31 359 l0 262 -211 0 -210 0 3 -352 c4 -462 -14 -427 294
-586 105 -55 215 -117 245 -140 116 -89 143 -184 83 -304 -13 -26 -28 -49 -33
-52 -5 -4 -36 10 -69 29 l-59 36 18 37 c51 99 6 147 -282 292 -163 83 -214
114 -255 155 -85 85 -87 92 -92 518 l-4 367 -94 0 -94 0 0 65 0 65 545 0 545
0 0 -65z"/>
</g>
</svg>
